<svg width="155" height="46" viewBox="0 0 155 46" fill="none" xmlns="http://www.w3.org/2000/svg">
<path d="M50.7964 45.8794H57.9844C59.8437 45.8736 58.7976 45.0169 58.4148 44.5562L46.7788 29.4569L57.2096 18.6434C58.0377 17.6575 57.3602 17.3437 56.0797 17.3643H49.6113C48.8955 17.3643 48.6155 17.601 48.0484 18.0629L36.9018 28.8216V10.7977H36.9016V9.02024V7.7763C36.9016 6.9365 36.6782 6.5929 35.5625 6.5929H29.7548C28.9329 6.5929 28.7925 6.876 28.7925 7.97466V9.02024V10.7977V42.896V43.434V44.4795C28.7925 45.5782 28.9329 45.8613 29.7548 45.8613H35.5625C36.6782 45.8613 36.9016 45.5177 36.9016 44.6779V43.434V42.896H36.9018V38.6196L40.8006 34.7002L49.0116 45.0835C49.4136 45.5932 50.0318 45.8901 50.7964 45.8797V45.8794Z" fill="#549A9A"/>
<path d="M129.16 16.9586C125.57 16.9586 122.445 18.1439 120.27 20.3341V19.8093V18.5654C120.27 17.7256 120.046 17.3821 118.931 17.3821H113.123C112.301 17.3821 112.161 17.6652 112.161 18.7638V19.0506V43.4346V44.4801C112.161 45.5787 112.301 45.8618 113.123 45.8618H118.931C120.046 45.8618 120.27 45.5183 120.27 44.6785V43.4346V31.7877C120.27 26.5447 123.078 24.1085 126.976 24.1085C130.563 24.1085 132.669 26.2275 132.642 30.8346L132.565 44.4801C132.565 45.5787 132.706 45.8618 133.527 45.8618H139.335C140.451 45.8618 140.673 45.5183 140.673 44.6785L140.751 29.5638C140.796 20.8779 135.76 16.9589 129.159 16.9589L129.16 16.9586Z" fill="#549A9A"/>
<path d="M150.27 43.4351V19.8099V18.566C150.27 17.7262 150.046 17.3825 148.932 17.3825H143.124C142.302 17.3825 142.161 17.6656 142.161 18.7643V19.8099V43.4351V44.4806C142.161 45.5792 142.301 45.8624 143.124 45.8624H148.932C150.047 45.8624 150.27 45.5188 150.27 44.679V43.4351Z" fill="#549A9A"/>
<path fill-rule="evenodd" clip-rule="evenodd" d="M143.51 10.8546C143.512 12.3208 143.738 12.6837 144.085 13.8732C144.153 14.1045 144.14 14.1714 144.294 14.1607C144.402 13.8404 143.44 9.10927 148.017 7.56135C148.716 7.32492 149.781 7.06454 150.583 7.01541C150.559 7.03474 150.57 7.02922 150.531 7.04856L150.09 7.18552C149.919 7.24171 149.784 7.28776 149.596 7.36484C148.631 7.76064 147.925 8.20618 147.184 8.95756C146.34 9.81145 145.588 11.2473 145.588 12.8127C145.588 13.3283 145.722 14.3105 145.965 14.6551C146.142 14.9065 146.509 14.8584 146.851 14.8414C148.699 14.7502 150.329 14.3188 151.676 13.0863C151.853 12.9251 152.019 12.7314 152.202 12.5102C152.514 12.1326 152.814 11.598 153.013 11.1147C153.809 9.19063 153.778 7.01663 153.524 4.9317C153.481 4.58287 153.423 4.20857 153.367 3.86466C153.317 3.56374 153.273 3.06384 153.145 2.84644C152.934 2.8268 152.844 3.06476 152.513 3.30396C151.851 3.78267 151.05 4.13548 150.341 4.42443C148.538 5.16015 145.913 6.01285 144.66 7.54939C143.99 8.37076 143.508 9.50875 143.51 10.8549V10.8546Z" fill="#549A9A"/>
<path fill-rule="evenodd" clip-rule="evenodd" d="M140.57 9.24185C140.57 9.81108 140.683 10.4381 140.864 10.9098C141.002 11.2724 141.149 11.5761 141.348 11.8982L141.75 12.4675C141.823 12.5618 141.9 12.6495 141.985 12.7309C142.428 13.1581 142.47 13.2514 143.026 13.6561C143.138 13.7381 143.498 14.0086 143.638 14.0206C143.669 13.9021 143.403 13.1258 143.351 12.956C143.264 12.6788 143.002 12.3459 142.862 12.0508C142.037 10.3279 142.21 8.75943 143.059 7.08257C143.264 6.67787 143.47 6.36252 143.69 6.00571C143.811 5.80735 144.306 5.11739 144.424 5.01115L143.994 5.84266C143.858 6.12056 143.737 6.41502 143.622 6.73099C143.43 7.26037 143.173 8.2709 143.256 8.90006C143.314 8.85523 143.479 8.39465 143.631 8.14255C143.777 7.9015 143.948 7.65678 144.1 7.48267C144.479 7.05003 144.761 6.75617 145.254 6.38309C145.85 5.93172 146.69 5.47297 147.404 5.1613C148.319 4.76305 148.317 4.86529 147.998 4.40808C147.66 3.92139 147.042 3.21515 146.629 2.81413C146.429 2.61976 146.238 2.4475 146.02 2.24423C145.929 2.15917 145.803 2.06367 145.708 1.97923C145.38 1.68508 144.76 1.19777 144.394 0.937685L143.692 0.436259C143.58 0.355195 143.455 0.219781 143.277 0.249566C143.202 0.398798 143.23 0.689277 143.207 0.885795C143.14 1.46676 142.929 2.09223 142.729 2.62129C141.98 4.59723 140.566 7.16456 140.569 9.24149L140.57 9.24185Z" fill="#549A9A"/>
<path d="M57.9269 21.8626C60.5324 28.6744 60.4429 23.5769 67.9956 23.5769C72.2156 23.5769 74.225 25.5727 74.225 29.002H67.9956C59.7572 29.002 56.3914 32.38 56.3914 37.2426C56.3914 42.0023 60.159 45.5851 66.4887 45.5851C70.4573 45.5851 73.2705 44.2543 74.7274 41.7466C74.7274 42.7875 75.0514 45.2418 76.4396 45.1758H82.803C80.7889 40.5647 82.0616 35.0471 82.0616 29.4629C82.0616 12.3898 56.3317 17.6939 57.9266 21.8629L57.9269 21.8626ZM68.4477 40.2109C65.6849 40.2109 64.027 38.8802 64.027 36.8842C64.027 35.0416 65.1825 33.6598 68.8498 33.6598H74.225V36.4747C73.3205 38.9824 71.0601 40.2109 68.4477 40.2109Z" fill="#549A9A"/>
<path d="M85.6074 21.8626C88.2129 28.6744 88.1234 23.5769 95.6763 23.5769C99.8957 23.5769 101.905 25.5727 101.905 29.002H95.6763C87.4374 29.002 84.0718 32.38 84.0718 37.2426C84.0718 42.0023 87.8394 45.5851 94.1691 45.5851C98.1378 45.5851 100.951 44.2543 102.408 41.7466C102.408 42.7875 102.731 45.2418 104.12 45.1758H110.484C108.469 40.5647 109.742 35.0471 109.742 29.4629C109.742 12.3898 84.0122 17.6939 85.6071 21.8629L85.6074 21.8626ZM96.1282 40.2109C93.3655 40.2109 91.7077 38.8802 91.7077 36.8842C91.7077 35.0416 92.8631 33.6598 96.5305 33.6598H101.905V36.4747C101.001 38.9824 98.7403 40.2109 96.1282 40.2109Z" fill="#549A9A"/>
<path fill-rule="evenodd" clip-rule="evenodd" d="M1.97664 21.5449C1.97664 21.6876 3.05801 25.4624 4.54173 25.4624C5.73673 25.4624 9.71774 22.6847 14.52 23.9371C15.894 24.2958 17.0598 25.0511 17.7021 26.3565C18.0863 27.137 18.224 28.0348 18.224 29.0172H15.5161C15.9712 28.3254 16.2289 28.2477 16.2289 27.0585C16.0083 27.223 16.0815 27.4223 15.9663 27.7346C15.8154 28.1442 15.4022 28.5099 15.0483 28.7589C14.5357 29.1197 14.077 29.0172 13.3069 29.0172C13.3069 27.0443 15.4446 26.6752 15.4446 25.4624C15.4446 25.0981 15.4751 25.0401 15.1599 24.9545C15.385 25.9382 14.8425 25.821 13.8651 26.6107C13.6894 26.7529 13.3365 27.1137 13.1842 27.2961C12.933 27.5977 12.9049 27.784 12.7563 28.0214C12.6695 28.1601 12.7288 28.0724 12.6656 28.1467C12.6656 27.6648 12.3145 25.6804 11.7391 25.6804C11.4549 25.6804 11.2213 25.7989 11.0977 25.9705C11.398 25.945 11.4757 25.8256 11.7391 25.8256C12.0589 25.8256 11.9229 26.3838 10.9552 26.4059C11.2006 26.779 11.5161 26.9037 11.7412 27.3465C11.9772 27.8107 12.095 28.0886 12.095 28.8001C11.6005 28.221 11.9471 29.14 10.4007 27.3329C9.9932 26.857 9.35912 26.0433 8.53178 26.0433C8.02455 26.0433 7.57428 26.3479 7.53419 26.8414C7.80936 26.6359 8.40218 25.4454 9.81416 27.4947C10.2572 28.1384 10.9971 28.9741 11.026 29.0178C9.73821 29.0178 8.12129 29.2702 7.04866 29.5391C4.94047 30.0682 2.72739 31.1626 1.577 33.1096C0.985377 34.1107 0.644211 35.2554 0.550781 36.4299V37.7598C0.719858 39.9193 1.71533 42.0337 3.52275 43.4039C5.79791 45.1289 8.08784 45.4863 11.2401 45.4863C12.8474 45.4863 14.6644 45.019 15.7298 44.4709C18.1007 43.2513 18.2919 42.1799 18.7223 41.8587C18.7223 42.6988 19.0535 44.5249 19.8826 44.9576C20.2997 45.1756 20.5637 45.124 21.145 45.1234C23.0215 45.1209 24.8983 45.1234 26.7746 45.1234L26.25 43.5537C26.0848 42.9874 25.9739 42.3868 25.8783 41.7556C25.6662 40.3477 25.7653 39.8487 25.6445 38.8007L25.8895 33.7029C25.9875 33.0424 26.0622 30.2206 26.0622 29.308C26.0622 26.7704 25.3075 24.1026 23.8702 22.3263C23.3843 21.7257 22.9314 21.2571 22.3404 20.7643C20.0206 18.8301 16.3696 17.7732 13.164 17.7732H13.0281C10.1972 17.7767 8.62521 17.8832 5.94107 18.6902C4.81479 19.0288 1.97633 20.1274 1.97633 21.5458L1.97664 21.5449ZM4.37688 34.1239V35.018C4.42298 35.1513 4.43233 35.5216 4.4694 35.715C4.51431 35.9496 4.56554 36.1836 4.62914 36.4035C5.43654 39.1876 7.81689 40.8328 10.5556 41.2256C10.7611 41.2551 11.1303 41.263 11.2889 41.3023H12.3774C12.6478 41.2173 13.3563 41.1795 13.7219 41.0913C16.3166 40.4653 18.6038 38.6168 19.102 35.7608C19.4161 33.9586 18.9802 32.3033 17.574 31.2574C16.9703 30.8085 16.1125 30.5254 15.1689 30.6455C14.7207 30.7027 14.3783 30.8279 14.0231 31.0057C13.7645 31.1352 13.2828 31.4669 13.1581 31.6468C13.2237 31.8725 13.4657 32.1105 13.5526 32.4126C13.0528 31.7257 12.7288 31.2694 11.8953 30.8315C9.69185 29.6737 6.67072 30.7305 6.00496 33.6341C5.88139 33.3424 6.35547 32.2888 6.49049 32.0546C7.03962 31.1033 7.78977 30.523 8.8404 30.2067C9.58244 29.9832 9.98508 30.0737 10.7427 30.0909C10.6237 29.9706 10.3781 29.9116 10.2183 29.8662C10.0341 29.814 9.81867 29.7689 9.62917 29.7446C8.46638 29.5944 7.30846 29.8985 6.37807 30.5377C5.87446 30.8838 5.36211 31.3945 5.0348 31.9796C4.38833 33.1373 4.57609 33.5058 4.37627 34.1245L4.37688 34.1239ZM14.5109 29.9003C14.7138 29.7191 14.9049 29.584 15.2496 29.4726C14.5535 29.3552 14.0303 29.3583 13.3624 29.6226C13.8684 29.5453 14.1566 29.6313 14.5107 29.9003H14.5109ZM10.9905 29.9521C10.7672 29.7983 10.5613 29.6878 10.2057 29.6206C10.8823 29.4166 11.4019 29.354 12.0966 29.5327C11.5852 29.5192 11.3093 29.6408 10.9905 29.9521ZM11.9856 29.9604C11.9265 30.0044 11.8112 30.1327 11.7952 30.2046C12.1792 30.5463 13.3229 30.2666 13.7334 30.098C13.4956 29.615 12.4751 29.4019 11.9856 29.9604ZM14.9139 30.3955C15.8265 30.4281 15.9365 30.2307 17.0399 30.6609C17.1662 30.7103 17.5071 30.8991 17.5882 30.9074C17.4724 30.5214 16.3907 29.6165 15.8998 29.491C15.394 29.5613 15.19 29.8846 14.9139 30.3955Z" fill="#549A9A"/>
</svg>
