<svg width="36" height="40" viewBox="0 0 36 40" fill="none" xmlns="http://www.w3.org/2000/svg">
<path d="M5.46762 33.9415C-1.82545 25.6545 -1.16876 11.4716 6.93453 2.26279L33.3431 32.2744C25.2398 41.4833 12.7596 42.2284 5.46762 33.9415Z" fill="#8B5E3C"/>
<path d="M6.93453 2.26279C2.8834 6.86663 5.51015 17.3181 12.8022 25.6062C20.0963 33.8931 29.293 36.8783 33.3431 32.2744C37.3942 27.6717 34.7675 17.2203 27.4734 8.93217C20.1824 0.644074 10.9857 -2.33988 6.93453 2.26279Z" fill="#603913"/>
<path d="M32.5287 26.9266C32.7663 27.1966 33.1097 27.3228 33.4489 27.252C33.8504 27.1683 34.171 26.8253 34.2685 26.3737C34.338 26.0566 35.9024 18.51 31.1427 13.101C29.9808 11.7805 28.2556 8.65157 27.7649 7.74377C27.3499 7.25451 27.0045 7.42545 26.2108 6.52355C25.8477 6.11091 24.7533 3.87325 21.6057 7.26512C21.2426 7.65653 21.2011 8.30024 21.4854 8.76829L32.4074 26.7628C32.4447 26.8217 32.4852 26.8771 32.5287 26.9266Z" fill="#F5F8FA"/>
<path d="M24.9348 7.29105C25.6683 8.12458 26.4474 8.96164 26.4474 8.96164C26.4474 8.96164 28.9413 12.2674 30.4093 13.9345C34.81 18.9368 33.2622 26.0931 33.2622 26.0931L21.1742 7.61055C21.1742 7.61055 24.0706 6.38208 24.9348 7.29105ZM26.2534 5.69474C24.3518 3.9994 21.2976 5.32337 20.5476 6.16161C19.839 6.96684 20.0631 8.50067 20.6316 9.43676L31.5536 27.4312C31.6262 27.5503 31.7061 27.6588 31.7942 27.759C32.2715 28.3013 32.9572 28.5524 33.6357 28.411C34.4386 28.2435 35.0808 27.5562 35.2758 26.6555C35.3505 26.31 37.0446 18.1398 31.8762 12.2663C30.9508 11.2146 29.8657 10.2172 28.8583 8.83196C28.517 8.33326 27.628 7.13307 26.7067 6.08734L26.2534 5.69474Z" fill="#603913"/>
<path d="M8.40144 3.92984C5.16054 7.61291 7.78729 16.5707 14.2701 23.9368C20.7509 31.3029 28.6343 34.2893 31.8752 30.6062C35.1161 26.9231 32.4883 17.9642 26.0065 10.598C19.5247 3.23307 11.6423 0.246764 8.40144 3.92984Z" fill="#F5F8FA"/>
<path d="M10.5562 6.48347C8.15142 9.2163 10.4701 16.2853 15.737 22.2709C21.0051 28.2577 27.2234 30.8915 29.6291 28.1587C32.0339 25.4258 29.7152 18.358 24.4483 12.3712C19.1823 6.38443 12.9619 3.74946 10.5562 6.48347Z" fill="#99AAB5"/>
<path d="M20.7104 10.0934L21.9304 9.69849C22.5135 9.33066 23.3351 9.3059 23.8974 9.89538L25.1537 11.3962C25.7481 12.2097 27.1445 13.9156 28.2608 15.1842C32.2102 19.6725 30.6666 25.4671 30.5981 25.7123C30.539 25.9269 30.3771 26.0837 30.1821 26.1179C30.0171 26.1462 29.8522 26.0837 29.737 25.9516C29.7152 25.9269 29.6955 25.9009 29.6769 25.8715L20.5507 10.9352C20.4687 10.8008 20.4386 10.6358 20.4698 10.4754C20.4998 10.3163 20.587 10.1783 20.7104 10.0934Z" fill="#99AAB5"/>
<path d="M24.4047 29.0948C24.4047 29.0948 21.0756 26.6366 20.4926 24.6489C19.8411 22.4266 15.6561 21.9939 15.0046 19.7704C14.3542 17.548 13.2659 14.1526 12.6673 12.7933C12.0698 11.4339 11.3622 12.7921 10.7107 10.5697C10.0592 8.34505 8.7552 6.86309 8.7552 6.86309C8.7552 6.86309 8.7552 17.2391 10.7107 19.4615C12.6673 21.685 20.4926 30.5779 21.1451 29.8351C21.7966 29.0948 24.4047 29.0948 24.4047 29.0948Z" fill="#F5F8FA"/>
<path d="M23.4482 31.0683C23.4482 31.0683 19.5786 28.0773 18.9707 26.0059C18.2912 23.6904 13.4827 22.9182 12.8043 20.6027C12.1247 18.2872 11.1485 14.1349 10.8197 13.6563C9.86939 12.2651 9.46169 13.6551 8.78218 11.3408C8.10266 9.02413 6.74468 7.48087 6.74468 7.48087C6.74468 7.48087 6.74468 18.2872 8.78218 20.6027C10.8197 22.9194 18.9696 32.1813 19.6502 31.4091C20.3297 30.638 23.4482 31.0683 23.4482 31.0683Z" fill="#603913"/>
<path d="M22.3392 33.1079C22.3392 33.1079 18.5941 30.3433 17.9384 28.1068C17.205 25.6062 11.3353 23.938 10.6018 21.4374C9.86835 18.9356 9.86835 15.6015 9.1349 14.768C8.40144 13.9333 7.66799 14.768 6.93453 12.2663C6.20107 9.76569 4.73416 8.09864 4.73416 8.09864C4.73416 8.09864 4.73416 19.7704 6.93453 22.2709C9.1349 24.7715 17.9374 34.775 18.6709 33.9415C19.4054 33.1079 22.3392 33.1079 22.3392 33.1079Z" fill="#8B5E3C"/>
<path d="M10.9711 37.1082C11.0655 36.7721 11.8384 37.0362 12.1258 37.1093C19.3193 38.9084 24.2221 35.4765 24.2761 35.4482C24.5582 35.2878 24.8767 35.4081 24.9867 35.7123C25.0966 36.0164 24.9597 36.3925 24.6796 36.5517C24.4462 36.6837 19.6917 39.558 12.1009 37.6587C12.0065 37.634 11.3529 37.5043 11.2907 37.4335C11.1631 37.2885 10.9068 37.3345 10.9711 37.1082ZM2.29415 25.3563C2.41345 25.4907 2.40619 25.6062 2.595 25.5508C2.89378 25.4647 2.90519 24.9413 2.85954 24.61C2.34913 20.8467 3.23301 16.942 4.76943 12.4054C4.88044 12.0741 4.74142 11.7275 4.46443 11.6367C4.18225 11.5424 3.86376 11.7357 3.75172 12.0658C2.13853 16.8218 1.61775 21.0684 2.15824 25.0497C2.17588 25.1724 2.22464 25.2761 2.29415 25.3563ZM13.0387 36.1768C13.1113 36.2605 13.212 36.3159 13.3282 36.3324C17.2382 36.8346 20.4791 34.9919 20.615 34.9129C20.8941 34.7514 21.03 34.3753 20.9169 34.0711C20.8048 33.7658 20.4843 33.6514 20.2031 33.8141C20.1731 33.8318 17.3575 35.987 13.7908 35.5272C13.4952 35.4894 12.9339 35.5083 12.8686 35.8514C12.8312 36.0601 12.9236 36.0471 13.0387 36.1768Z" fill="#A97C50"/>
</svg>
