<svg width="39" height="36" viewBox="0 0 39 36" fill="none" xmlns="http://www.w3.org/2000/svg">
<rect x="0.5" y="0.5" width="38" height="35" rx="4.5" fill="white" stroke="#C4C4C4"/>
<path d="M9.29063 17.2922L16.291 10.2934C16.916 9.66849 17.9994 10.1059 17.9994 11.0016C17.9994 13.2104 19.79 15.0009 21.9987 15.0009H23.6664C24.2205 15.0009 24.6664 15.4467 24.6664 16.0008V20.0001C24.6664 20.5542 24.2205 20.9999 23.6664 20.9999H21.9987C19.79 20.9999 17.9994 22.7905 17.9994 24.9993C17.9994 25.8908 16.9202 26.3324 16.291 25.7075L9.29063 18.7087C8.90311 18.3171 8.90311 17.6838 9.29063 17.2922ZM21.9996 10.5017V12.1681C21.9996 12.443 22.2246 12.668 22.4996 12.668H25.9998C26.7373 12.668 27.3332 13.2637 27.3332 14.0011V21.9998C27.3332 22.7372 26.7373 23.3329 25.9998 23.3329H22.4996C22.2246 23.3329 21.9996 23.5579 21.9996 23.8328V25.4992C21.9996 25.7742 22.2246 25.9991 22.4996 25.9991L25.9998 25.9991C28.2082 25.9991 30 24.2077 30 21.9998V14.0011C30 11.7931 28.2082 10.0018 25.9998 10.0018H22.4996C22.2246 10.0018 21.9996 10.2267 21.9996 10.5017Z" fill="#726C6C"/>
</svg>
